<mxfile host="app.diagrams.net" modified="2020-09-01T16:19:03.603Z" agent="5.0 (Windows NT 10.0; Win64; x64) AppleWebKit/537.36 (KHTML, like Gecko) Chrome/84.0.4147.135 Safari/537.36" etag="n6P2C316x_FIs7TEEhMa" version="13.6.6" type="github">
  <diagram id="Ml4mK4ru0IrEniYJASBg" name="Page-1">
    <mxGraphModel dx="868" dy="460" grid="1" gridSize="10" guides="1" tooltips="1" connect="1" arrows="1" fold="1" page="1" pageScale="1" pageWidth="827" pageHeight="1169" math="0" shadow="0">
      <root>
        <mxCell id="EtWNNTzBg_QO78k3pFSy-0" />
        <mxCell id="EtWNNTzBg_QO78k3pFSy-1" parent="EtWNNTzBg_QO78k3pFSy-0" />
      </root>
    </mxGraphModel>
  </diagram>
</mxfile>
